<svg width="695" height="436" viewBox="0 0 695 436" fill="none" xmlns="http://www.w3.org/2000/svg">
<path d="M309.207 22.6597L339.887 0.310791H410.096L411.901 120.51V128.226L449.377 60.8577H733.663L692.358 103.815H537.02L513.185 140.299H676.666L653.115 165.142H502.18L478.545 202.928H640.08L620.911 231.15H471.244L448.874 267.923H590.984L562.522 304.37H448.874V333.8L530.6 435.311H448.874L365.738 333.8L285.368 435.311H203.642L285.368 333.8V304.37H171.719L143.257 267.923H285.368L271.916 231.15H113.33L94.1615 202.928H255.696L232.061 165.142H81.1261L57.5752 140.299H221.056L197.221 103.815H41.8827L0.578125 60.8577H284.864L321.915 128.226L328.809 110.462V30.5599L309.207 22.6597Z" fill="#BDAC6F"/>
</svg>
