<svg width="745" height="754" viewBox="0 0 745 754" fill="none" xmlns="http://www.w3.org/2000/svg">
<path fill-rule="evenodd" clip-rule="evenodd" d="M366.315 50.8101H450.686V127.72C573.507 145.903 670.45 243.49 687.661 366.624H766.5V450.996H686.788C667.39 571.386 571.572 666.205 450.686 684.102V766.811H366.315V683.909C246.036 665.53 150.831 570.958 131.501 450.996H50.5V366.624H130.629C147.78 243.921 244.105 146.587 366.315 127.913V50.8101ZM622.666 366.624H541.51V450.996H621.524C603.594 535.875 536.067 602.461 450.686 619.008V541.821H366.315V618.754C281.543 601.789 214.605 535.448 196.765 450.996H275.491V366.624H195.623C211.565 279.422 279.613 210.419 366.315 193.068V275.801H450.686V192.814C538.002 209.736 606.646 278.99 622.666 366.624Z" fill="#BDAC6F"/>
</svg>
