<svg width="646" height="715" viewBox="0 0 646 715" fill="none" xmlns="http://www.w3.org/2000/svg">
<path fill-rule="evenodd" clip-rule="evenodd" d="M129.817 110.515C129.817 87.8217 147.301 69.4255 168.869 69.4255H276.41C297.977 69.4255 315.462 87.8217 315.462 110.515V460.091H129.817V110.515ZM250.789 112.655H294.919V435.274H250.789V112.655Z" fill="#BDAC6F"/>
<path fill-rule="evenodd" clip-rule="evenodd" d="M400.68 110.515C400.68 87.8217 418.163 69.4255 439.731 69.4255H547.273C568.84 69.4255 586.325 87.8217 586.325 110.515V460.091H400.68V110.515ZM521.652 112.655H565.781V435.274H521.652V112.655Z" fill="#BDAC6F"/>
<path d="M314.32 505.722H128.675V616.197H102.424V645.817H340.57V616.197H314.32V505.722Z" fill="#BDAC6F"/>
<path d="M400.681 505.722H586.325V616.197H612.576V645.817H374.429V616.197H400.681V505.722Z" fill="#BDAC6F"/>
</svg>
