<svg width="741" height="857" viewBox="0 0 741 857" fill="none" xmlns="http://www.w3.org/2000/svg">
<path fill-rule="evenodd" clip-rule="evenodd" d="M487.422 310.661H590.765V339.219C651.099 339.577 700.806 404.326 700.806 465.712V498.435C700.806 587.868 628.306 655.122 538.873 655.122C449.44 655.122 376.94 582.622 376.94 493.189V450.05C376.94 388.514 426.887 339.32 487.422 339.195V310.661ZM607.822 365.085V398.528C637.519 419.078 679.095 481.4 607.822 566.291V602.116C663.705 560.097 741.942 453.865 607.822 365.085Z" fill="#BDAC6F"/>
<path d="M482.824 148.543H471.741C430.549 189.713 341.707 291.621 315.877 369.895C306.739 403.669 296.792 493.955 330.1 584.911C338.736 597.143 357.201 614.268 361.972 584.911C356.115 529.888 346.759 416.567 356.194 403.463C362.528 368.082 390.92 295.354 453.82 287.491H615.655V216.729H637.932C647.324 207.556 660.471 183.838 637.932 162.347H635.291C634.841 161.903 634.395 161.481 633.957 161.084H615.318V149.263H489.748L482.824 148.543Z" fill="#BDAC6F"/>
</svg>
