<svg width="609" height="644" viewBox="0 0 609 644" fill="none" xmlns="http://www.w3.org/2000/svg">
<path d="M191.045 386.552L577.942 0.310791V125.355L253.673 449.074L191.045 386.552Z" fill="#BDAC6F"/>
<path d="M280.133 251.107L28.9105 0.310848V125.355L217.505 313.629L280.133 251.107Z" fill="#BDAC6F"/>
<path d="M389.59 354.603L326.442 417.644L362.303 453.445L425.453 390.404L389.59 354.603Z" fill="#BDAC6F"/>
<path d="M365.612 521.013C361.576 516.985 361.576 510.454 365.612 506.426L479.102 393.128C483.136 389.1 489.679 389.1 493.713 393.128C497.748 397.156 497.748 403.687 493.713 407.715L475.166 426.232C483.112 434.621 482.969 447.855 474.74 456.071L429.981 500.754C421.752 508.971 408.495 509.112 400.091 501.179L380.223 521.013C376.189 525.041 369.646 525.041 365.612 521.013Z" fill="#BDAC6F"/>
<path d="M433.035 520.835C428.848 525.016 428.848 531.793 433.035 535.974C437.222 540.154 444.011 540.154 448.198 535.974L508.121 476.152C512.308 471.972 512.308 465.195 508.121 461.014C503.934 456.834 497.143 456.834 492.956 461.014L433.035 520.835Z" fill="#BDAC6F"/>
<path d="M458.833 563.624C454.646 559.444 454.646 552.666 458.833 548.486L518.755 488.665C522.942 484.484 529.732 484.484 533.919 488.665C538.107 492.845 538.107 499.623 533.919 503.803L473.996 563.624C469.809 567.804 463.02 567.804 458.833 563.624Z" fill="#BDAC6F"/>
<path d="M484.632 576.136C480.445 580.316 480.445 587.094 484.632 591.274C488.819 595.454 495.608 595.454 499.795 591.274L559.718 531.453C563.905 527.273 563.905 520.495 559.718 516.315C555.531 512.135 548.74 512.135 544.553 516.315L484.632 576.136Z" fill="#BDAC6F"/>
<path d="M510.43 618.924C506.243 614.744 506.243 607.967 510.43 603.786L570.352 543.965C574.539 539.785 581.329 539.785 585.516 543.965C589.703 548.146 589.703 554.923 585.516 559.103L525.593 618.924C521.406 623.105 514.617 623.105 510.43 618.924Z" fill="#BDAC6F"/>
<path d="M540.93 630.115C537.993 633.049 537.993 637.806 540.93 640.739L541.311 641.119C543.493 643.298 546.804 643.927 549.62 642.667C583.06 627.704 598.197 614.704 608.62 584.066C609.518 581.427 608.789 578.509 606.814 576.538L606.027 575.753C603.088 572.819 598.324 572.819 595.384 575.753L540.93 630.115Z" fill="#BDAC6F"/>
<path d="M243.39 506.426C247.424 510.454 247.424 516.985 243.39 521.013C239.355 525.041 232.813 525.041 228.776 521.013L208.908 501.179C200.505 509.112 187.249 508.971 179.018 500.754L134.26 456.071C126.031 447.855 125.887 434.621 133.835 426.232L115.286 407.715C111.252 403.687 111.252 397.156 115.286 393.128C119.323 389.1 125.865 389.1 129.9 393.128L243.39 506.426Z" fill="#BDAC6F"/>
<path d="M175.967 535.974C180.154 531.793 180.154 525.016 175.967 520.835L116.043 461.014C111.856 456.834 105.068 456.834 100.881 461.014C96.6917 465.195 96.6917 471.972 100.881 476.152L160.802 535.974C164.989 540.154 171.78 540.154 175.967 535.974Z" fill="#BDAC6F"/>
<path d="M150.168 548.486C154.355 552.666 154.355 559.444 150.168 563.624C145.981 567.804 139.191 567.804 135.004 563.624L75.0821 503.803C70.8932 499.623 70.8932 492.845 75.0821 488.665C79.2692 484.484 86.0578 484.484 90.2448 488.665L150.168 548.486Z" fill="#BDAC6F"/>
<path d="M124.37 591.274C128.557 587.094 128.557 580.316 124.37 576.136L64.4463 516.315C60.2593 512.135 53.4707 512.135 49.2836 516.315C45.0947 520.495 45.0947 527.273 49.2836 531.453L109.205 591.274C113.392 595.454 120.183 595.454 124.37 591.274Z" fill="#BDAC6F"/>
<path d="M98.5712 603.786C102.758 607.967 102.758 614.744 98.5712 618.924C94.3841 623.105 87.5937 623.105 83.4066 618.924L23.4851 559.103C19.2962 554.923 19.2962 548.146 23.4851 543.965C27.6722 539.785 34.4608 539.785 38.6478 543.965L98.5712 603.786Z" fill="#BDAC6F"/>
<path d="M68.0694 640.739C71.009 637.806 71.009 633.049 68.0694 630.115L13.6155 575.753C10.6777 572.819 5.91194 572.819 2.97236 575.753L2.18602 576.538C0.212826 578.509 -0.518395 581.427 0.380014 584.066C10.8027 614.704 25.9397 627.704 59.3792 642.667C62.1957 643.927 65.5064 643.298 67.6891 641.119L68.0694 640.739Z" fill="#BDAC6F"/>
</svg>
