<svg width="40" height="41" viewBox="0 0 40 41" fill="none" xmlns="http://www.w3.org/2000/svg">
<path fill-rule="evenodd" clip-rule="evenodd" d="M13.6317 3.06136C12.8064 4.53372 9.4015 10.5825 6.06545 16.5036C2.72941 22.4248 0 27.5592 0 27.9138C0 28.7061 0.89754 29.0782 2.81027 29.0782C4.47786 29.0782 4.67209 28.823 8.68278 21.3695C11.2941 16.5173 12.2588 14.979 11.7861 16.4218C11.6359 16.8805 11.5097 18.773 11.5055 20.6273C11.4995 23.4659 11.6945 24.4175 12.741 26.6457C15.5217 32.5677 21.8554 35.9844 27.6723 34.7004C29.5499 34.2863 29.8002 34.3261 30.4954 35.1531C31.4913 36.3377 31.2903 36.822 29.3711 37.8576C28.2413 38.4674 27.8182 38.9608 27.9029 39.5706C28.0804 40.8541 29.7296 40.7179 29.7429 39.4186C29.7519 38.5655 30.542 38.0053 34.8766 35.7784C38.8385 33.7433 40 32.9527 40 32.2902C40 30.9622 38.3281 31.1544 38.1386 32.5043C37.8468 34.5865 35.8721 34.8461 35.0699 32.9073C34.5566 31.6666 34.6092 31.5142 36.0663 30.0166C41.8729 24.0504 40.5206 13.6107 33.3399 8.96451C30.2152 6.94269 27.2299 6.01294 22.7576 5.66776L19.4323 5.4108L18.0415 2.89776C16.2259 -0.383573 15.5491 -0.358306 13.6317 3.06136ZM27.6672 11.3032C30.4928 12.1435 33.5114 14.8116 34.4655 17.3126C35.4563 19.9096 35.0926 23.4449 33.603 25.6988C32.9968 26.6153 32.3598 27.3652 32.1865 27.3652C31.9213 27.3648 23.1705 12.2548 22.7452 11.0626C22.5275 10.4527 25.2548 10.5859 27.6672 11.3032ZM20.2139 15.9957C21.0965 17.5062 21.8182 19.0218 21.8182 19.3636C21.8182 20.277 20.3906 20.4954 16.7358 20.1417C16.2986 20.0997 16.1989 19.6085 16.3521 18.2475C16.5587 16.4128 17.8229 13.2253 18.3375 13.2407C18.4873 13.2454 19.3318 14.4848 20.2139 15.9957ZM26.4616 27.4637C27.8721 29.9095 27.7198 30.3467 25.4545 30.354C23.2372 30.3613 21.1833 29.5639 19.3305 27.9759C16.575 25.6149 16.8629 25.2239 21.3549 25.2239H25.1701L26.4616 27.4637Z" fill="white"/>
</svg>
