<svg width="40" height="41" viewBox="0 0 40 41" fill="none" xmlns="http://www.w3.org/2000/svg">
<path fill-rule="evenodd" clip-rule="evenodd" d="M13.6317 2.90596C12.8064 4.37833 9.4015 10.4271 6.06545 16.3482C2.72941 22.2694 0 27.4038 0 27.7584C0 28.5507 0.89754 28.9228 2.81027 28.9228C4.47786 28.9228 4.67209 28.6676 8.68278 21.2141C11.2941 16.3619 12.2588 14.8236 11.7861 16.2664C11.6359 16.7251 11.5097 18.6176 11.5055 20.472C11.4995 23.3105 11.6945 24.2621 12.741 26.4903C15.5217 32.4123 21.8554 35.829 27.6723 34.545C29.5499 34.1309 29.8002 34.1707 30.4954 34.9977C31.4913 36.1823 31.2903 36.6667 29.3711 37.7022C28.2413 38.312 27.8182 38.8054 27.9029 39.4152C28.0804 40.6987 29.7296 40.5625 29.7429 39.2632C29.7519 38.4101 30.542 37.8499 34.8766 35.623C38.8385 33.5879 40 32.7973 40 32.1348C40 30.8068 38.3281 30.999 38.1386 32.3489C37.8468 34.4311 35.8721 34.6907 35.0699 32.7519C34.5566 31.5112 34.6092 31.3588 36.0663 29.8612C41.8729 23.895 40.5206 13.4553 33.3399 8.80912C30.2152 6.7873 27.2299 5.85754 22.7576 5.51236L19.4323 5.25541L18.0415 2.74237C16.2259 -0.538969 15.5491 -0.513702 13.6317 2.90596ZM27.6672 11.1479C30.4928 11.9881 33.5114 14.6562 34.4655 17.1572C35.4563 19.7542 35.0926 23.2895 33.603 25.5434C32.9968 26.4599 32.3598 27.2098 32.1865 27.2098C31.9213 27.2094 23.1705 12.0994 22.7452 10.9072C22.5275 10.2973 25.2548 10.4305 27.6672 11.1479ZM20.2139 15.8403C21.0965 17.3508 21.8182 18.8664 21.8182 19.2082C21.8182 20.1216 20.3906 20.34 16.7358 19.9863C16.2986 19.9443 16.1989 19.4531 16.3521 18.0921C16.5587 16.2574 17.8229 13.0699 18.3375 13.0853C18.4873 13.09 19.3318 14.3294 20.2139 15.8403ZM26.4616 27.3083C27.8721 29.7541 27.7198 30.1913 25.4545 30.1986C23.2372 30.2059 21.1833 29.4085 19.3305 27.8205C16.575 25.4595 16.8629 25.0685 21.3549 25.0685H25.1701L26.4616 27.3083Z" fill="#505050"/>
</svg>
