<svg width="40" height="39" viewBox="0 0 40 39" fill="none" xmlns="http://www.w3.org/2000/svg">
<path fill-rule="evenodd" clip-rule="evenodd" d="M28.8934 0.509598C25.4251 0.919464 22.4609 3.1295 20.8431 6.51166C20.2094 7.83648 19.7033 9.86816 19.6986 11.1069L19.6966 11.5955L16.5404 16.596L13.3841 21.5965L12.4152 21.6545C11.0128 21.7383 10.2049 21.9551 9.20713 22.5149C8.95653 22.6555 8.70515 22.7705 8.64851 22.7705C8.59186 22.7705 6.62808 21.9122 4.28453 20.8631L0.0235162 18.9557L0.00333068 24.228C-0.00777916 27.1277 0.00982446 29.5262 0.0424498 29.5581C0.0750752 29.5899 1.22995 30.1149 2.60874 30.7248L5.11581 31.8337L5.26368 32.4113C5.64572 33.903 6.65335 35.5761 7.76543 36.5652C10.0067 38.5584 12.9134 39.0159 15.5314 37.7874C17.8641 36.6927 19.6244 34.2258 20.0205 31.4961L20.1115 30.8692L24.9719 26.9324L29.8323 22.9957L30.6557 22.9293C32.4236 22.7865 34.5557 21.9091 35.9349 20.7566C37.9584 19.0658 39.3243 16.6484 39.8584 13.8131C40.0297 12.9034 40.0497 10.7676 39.8958 9.81276C39.1459 5.16083 35.8226 1.45699 31.6709 0.646134C30.7888 0.473856 29.6639 0.418546 28.8934 0.509598ZM30.8885 4.25022C33.5487 4.71505 35.7078 6.85395 36.4596 9.76928C36.6953 10.6835 36.7119 12.6636 36.4912 13.5521C36.1641 14.8692 35.5918 15.9813 34.7316 16.9718C33.4412 18.4576 31.7815 19.228 29.8714 19.228C27.892 19.228 26.2582 18.4399 24.8914 16.8254C23.6253 15.33 23.0647 13.7429 23.0647 11.6538C23.0647 7.09363 26.8206 3.53946 30.8885 4.25022ZM29.0294 5.72932C27.3045 6.07249 25.8185 7.27695 25.0703 8.93842C24.59 10.005 24.4432 10.7889 24.494 12.0171C24.5626 13.6795 25.1264 15.0156 26.2358 16.1449C28.7424 18.6962 32.8291 18.0292 34.5626 14.7858C36.3762 11.3924 34.845 7.07728 31.4126 5.90934C30.7943 5.69897 29.6257 5.6107 29.0294 5.72932ZM14.3411 24.1962C18.0258 25.5979 19.3265 30.6715 16.8543 33.9999C16.1581 34.9372 15.0705 35.711 13.9822 36.0433C13.2025 36.2814 11.7703 36.2612 11.016 36.0014C10.1393 35.6994 9.42792 35.2471 8.79239 34.5873C8.27374 34.049 7.57883 33.0771 7.65832 33.0013C7.67624 32.9842 8.28939 33.2407 9.02092 33.5712C10.5959 34.283 11.3269 34.5112 12.0261 34.5095C14.0117 34.5045 15.8181 32.9629 16.3029 30.8596C16.7473 28.9312 16.1117 26.9013 14.6936 25.7203C14.3271 25.4151 13.7949 25.1201 12.7926 24.6664C11.7748 24.2056 11.4383 24.0185 11.5408 23.9699C11.618 23.9333 12.1387 23.9157 12.6981 23.9307C13.5611 23.954 13.8101 23.9942 14.3411 24.1962Z" fill="white"/>
</svg>
