<svg width="40" height="39" viewBox="0 0 40 39" fill="none" xmlns="http://www.w3.org/2000/svg">
<path fill-rule="evenodd" clip-rule="evenodd" d="M28.8934 0.354203C25.4251 0.764069 22.4609 2.97411 20.8431 6.35626C20.2094 7.68109 19.7033 9.71276 19.6986 10.9515L19.6966 11.4401L16.5404 16.4406L13.3841 21.4411L12.4152 21.4991C11.0128 21.583 10.2049 21.7997 9.20713 22.3596C8.95653 22.5001 8.70515 22.6151 8.64851 22.6151C8.59186 22.6151 6.62808 21.7568 4.28453 20.7077L0.0235162 18.8003L0.00333068 24.0726C-0.00777916 26.9723 0.00982446 29.3708 0.0424498 29.4027C0.0750752 29.4345 1.22995 29.9595 2.60874 30.5694L5.11581 31.6783L5.26368 32.2559C5.64572 33.7476 6.65335 35.4207 7.76543 36.4098C10.0067 38.403 12.9134 38.8605 15.5314 37.632C17.8641 36.5373 19.6244 34.0704 20.0205 31.3407L20.1115 30.7138L24.9719 26.777L29.8323 22.8403L30.6557 22.7739C32.4236 22.6311 34.5557 21.7537 35.9349 20.6012C37.9584 18.9104 39.3243 16.493 39.8584 13.6578C40.0297 12.748 40.0497 10.6122 39.8958 9.65737C39.1459 5.00544 35.8226 1.3016 31.6709 0.490738C30.7888 0.31846 29.6639 0.26315 28.8934 0.354203ZM30.8885 4.09483C33.5487 4.55965 35.7078 6.69856 36.4596 9.61388C36.6953 10.5281 36.7119 12.5083 36.4912 13.3967C36.1641 14.7138 35.5918 15.8259 34.7316 16.8164C33.4412 18.3022 31.7815 19.0726 29.8714 19.0726C27.892 19.0726 26.2582 18.2845 24.8914 16.67C23.6253 15.1746 23.0647 13.5875 23.0647 11.4984C23.0647 6.93823 26.8206 3.38406 30.8885 4.09483ZM29.0294 5.57393C27.3045 5.91709 25.8185 7.12155 25.0703 8.78302C24.59 9.84956 24.4432 10.6335 24.494 11.8618C24.5626 13.5241 25.1264 14.8602 26.2358 15.9895C28.7424 18.5408 32.8291 17.8738 34.5626 14.6304C36.3762 11.237 34.845 6.92188 31.4126 5.75394C30.7943 5.54358 29.6257 5.45531 29.0294 5.57393ZM14.3411 24.0408C18.0258 25.4425 19.3265 30.5161 16.8543 33.8445C16.1581 34.7818 15.0705 35.5556 13.9822 35.8879C13.2025 36.126 11.7703 36.1058 11.016 35.846C10.1393 35.544 9.42792 35.0917 8.79239 34.4319C8.27374 33.8936 7.57883 32.9217 7.65832 32.8459C7.67624 32.8288 8.28939 33.0853 9.02092 33.4158C10.5959 34.1277 11.3269 34.3558 12.0261 34.3541C14.0117 34.3491 15.8181 32.8075 16.3029 30.7042C16.7473 28.7758 16.1117 26.7459 14.6936 25.5649C14.3271 25.2597 13.7949 24.9647 12.7926 24.511C11.7748 24.0502 11.4383 23.8631 11.5408 23.8145C11.618 23.7779 12.1387 23.7603 12.6981 23.7753C13.5611 23.7986 13.8101 23.8388 14.3411 24.0408Z" fill="#505050"/>
</svg>
