<svg width="40" height="33" viewBox="0 0 40 33" fill="none" xmlns="http://www.w3.org/2000/svg">
<path d="M40 0.605213C38.2589 1.80983 36.3311 2.73117 34.2909 3.33375C33.1959 2.09879 31.7406 1.22349 30.1219 0.826218C28.5032 0.428947 26.7991 0.528878 25.2401 1.1125C23.6812 1.69611 22.3426 2.73526 21.4054 4.08939C20.4682 5.44352 19.9776 7.0473 20 8.68382V10.4672C16.8048 10.5484 13.6387 9.85337 10.7837 8.44387C7.92862 7.03436 5.4733 4.95417 3.63636 2.38857C3.63636 2.38857 -3.63636 18.4388 12.7273 25.5722C8.98278 28.0653 4.5221 29.3154 0 29.1389C16.3636 38.0557 36.3636 29.1389 36.3636 8.63032C36.362 8.13357 36.3133 7.63805 36.2182 7.15014C38.0738 5.35517 39.3833 3.08892 40 0.605213Z" fill="white"/>
</svg>
