<svg width="40" height="33" viewBox="0 0 40 33" fill="none" xmlns="http://www.w3.org/2000/svg">
<path d="M40 0.449818C38.2589 1.65444 36.3311 2.57577 34.2909 3.17835C33.1959 1.9434 31.7406 1.06809 30.1219 0.670822C28.5032 0.273551 26.7991 0.373482 25.2401 0.9571C23.6812 1.54072 22.3426 2.57986 21.4054 3.93399C20.4682 5.28812 19.9776 6.8919 20 8.52843V10.3118C16.8048 10.393 13.6387 9.69798 10.7837 8.28847C7.92862 6.87896 5.4733 4.79878 3.63636 2.23318C3.63636 2.23318 -3.63636 18.2834 12.7273 25.4168C8.98278 27.9099 4.5221 29.16 0 28.9835C16.3636 37.9003 36.3636 28.9835 36.3636 8.47493C36.362 7.97818 36.3133 7.48266 36.2182 6.99474C38.0738 5.19978 39.3833 2.93352 40 0.449818Z" fill="#505050"/>
</svg>
